<?xml version="1.0" encoding="utf-8" standalone="no"?>
<!DOCTYPE svg PUBLIC "-//W3C//DTD SVG 1.1//EN"
  "http://www.w3.org/Graphics/SVG/1.1/DTD/svg11.dtd">
<!-- Created with matplotlib (http://matplotlib.org/) -->
<svg height="252pt" version="1.1" viewBox="0 0 626 252" width="626pt" xmlns="http://www.w3.org/2000/svg" xmlns:xlink="http://www.w3.org/1999/xlink">
 <defs>
  <style type="text/css">
*{stroke-linecap:butt;stroke-linejoin:round;}
  </style>
 </defs>
 <g id="figure_1">
  <g id="patch_1">
   <path d="M -0 252.018125 
L 626.770313 252.018125 
L 626.770313 0 
L -0 0 
z
" style="fill:#ffffff;"/>
  </g>
  <g id="axes_1">
   <g id="patch_2">
    <path d="M 281.270312 228.14 
L 616.070312 228.14 
L 616.070312 10.7 
L 281.270312 10.7 
z
" style="fill:#ffffff;"/>
   </g>
   <g id="patch_3">
    <path clip-path="url(#p14dc39ba9f)" d="M 281.270312 220.374286 
L 600.127455 220.374286 
L 600.127455 204.842857 
L 281.270312 204.842857 
z
" style="fill:#008000;"/>
   </g>
   <g id="patch_4">
    <path clip-path="url(#p14dc39ba9f)" d="M 281.270312 189.311429 
L 362.971216 189.311429 
L 362.971216 173.78 
L 281.270312 173.78 
z
" style="fill:#008000;"/>
   </g>
   <g id="patch_5">
    <path clip-path="url(#p14dc39ba9f)" d="M 281.270312 158.248571 
L 351.939688 158.248571 
L 351.939688 142.717143 
L 281.270312 142.717143 
z
" style="fill:#008000;"/>
   </g>
   <g id="patch_6">
    <path clip-path="url(#p14dc39ba9f)" d="M 281.270312 127.185714 
L 307.530616 127.185714 
L 307.530616 111.654286 
L 281.270312 111.654286 
z
" style="fill:#008000;"/>
   </g>
   <g id="patch_7">
    <path clip-path="url(#p14dc39ba9f)" d="M 281.270312 96.122857 
L 298.413001 96.122857 
L 298.413001 80.591429 
L 281.270312 80.591429 
z
" style="fill:#008000;"/>
   </g>
   <g id="patch_8">
    <path clip-path="url(#p14dc39ba9f)" d="M 281.270312 65.06 
L 281.289963 65.06 
L 281.289963 49.528571 
L 281.270312 49.528571 
z
" style="fill:#008000;"/>
   </g>
   <g id="patch_9">
    <path clip-path="url(#p14dc39ba9f)" d="M 281.270312 33.997143 
L 281.274243 33.997143 
L 281.274243 18.465714 
L 281.270312 18.465714 
z
" style="fill:#008000;"/>
   </g>
   <g id="matplotlib.axis_1">
    <g id="xtick_1">
     <g id="line2d_1">
      <defs>
       <path d="M 0 0 
L 0 3.5 
" id="mf150eb2e02" style="stroke:#000000;stroke-width:0.8;"/>
      </defs>
      <g>
       <use style="stroke:#000000;stroke-width:0.8;" x="281.270312" xlink:href="#mf150eb2e02" y="228.14"/>
      </g>
     </g>
     <g id="text_1">
      <!-- 0 -->
      <defs>
       <path d="M 31.78125 66.40625 
Q 24.171875 66.40625 20.328125 58.90625 
Q 16.5 51.421875 16.5 36.375 
Q 16.5 21.390625 20.328125 13.890625 
Q 24.171875 6.390625 31.78125 6.390625 
Q 39.453125 6.390625 43.28125 13.890625 
Q 47.125 21.390625 47.125 36.375 
Q 47.125 51.421875 43.28125 58.90625 
Q 39.453125 66.40625 31.78125 66.40625 
z
M 31.78125 74.21875 
Q 44.046875 74.21875 50.515625 64.515625 
Q 56.984375 54.828125 56.984375 36.375 
Q 56.984375 17.96875 50.515625 8.265625 
Q 44.046875 -1.421875 31.78125 -1.421875 
Q 19.53125 -1.421875 13.0625 8.265625 
Q 6.59375 17.96875 6.59375 36.375 
Q 6.59375 54.828125 13.0625 64.515625 
Q 19.53125 74.21875 31.78125 74.21875 
z
" id="DejaVuSans-30"/>
      </defs>
      <g transform="translate(278.089063 242.738437)scale(0.1 -0.1)">
       <use xlink:href="#DejaVuSans-30"/>
      </g>
     </g>
    </g>
    <g id="xtick_2">
     <g id="line2d_2">
      <g>
       <use style="stroke:#000000;stroke-width:0.8;" x="320.570377" xlink:href="#mf150eb2e02" y="228.14"/>
      </g>
     </g>
     <g id="text_2">
      <!-- 10000 -->
      <defs>
       <path d="M 12.40625 8.296875 
L 28.515625 8.296875 
L 28.515625 63.921875 
L 10.984375 60.40625 
L 10.984375 69.390625 
L 28.421875 72.90625 
L 38.28125 72.90625 
L 38.28125 8.296875 
L 54.390625 8.296875 
L 54.390625 0 
L 12.40625 0 
z
" id="DejaVuSans-31"/>
      </defs>
      <g transform="translate(304.664127 242.738437)scale(0.1 -0.1)">
       <use xlink:href="#DejaVuSans-31"/>
       <use x="63.623047" xlink:href="#DejaVuSans-30"/>
       <use x="127.246094" xlink:href="#DejaVuSans-30"/>
       <use x="190.869141" xlink:href="#DejaVuSans-30"/>
       <use x="254.492188" xlink:href="#DejaVuSans-30"/>
      </g>
     </g>
    </g>
    <g id="xtick_3">
     <g id="line2d_3">
      <g>
       <use style="stroke:#000000;stroke-width:0.8;" x="359.870441" xlink:href="#mf150eb2e02" y="228.14"/>
      </g>
     </g>
     <g id="text_3">
      <!-- 20000 -->
      <defs>
       <path d="M 19.1875 8.296875 
L 53.609375 8.296875 
L 53.609375 0 
L 7.328125 0 
L 7.328125 8.296875 
Q 12.9375 14.109375 22.625 23.890625 
Q 32.328125 33.6875 34.8125 36.53125 
Q 39.546875 41.84375 41.421875 45.53125 
Q 43.3125 49.21875 43.3125 52.78125 
Q 43.3125 58.59375 39.234375 62.25 
Q 35.15625 65.921875 28.609375 65.921875 
Q 23.96875 65.921875 18.8125 64.3125 
Q 13.671875 62.703125 7.8125 59.421875 
L 7.8125 69.390625 
Q 13.765625 71.78125 18.9375 73 
Q 24.125 74.21875 28.421875 74.21875 
Q 39.75 74.21875 46.484375 68.546875 
Q 53.21875 62.890625 53.21875 53.421875 
Q 53.21875 48.921875 51.53125 44.890625 
Q 49.859375 40.875 45.40625 35.40625 
Q 44.1875 33.984375 37.640625 27.21875 
Q 31.109375 20.453125 19.1875 8.296875 
z
" id="DejaVuSans-32"/>
      </defs>
      <g transform="translate(343.964191 242.738437)scale(0.1 -0.1)">
       <use xlink:href="#DejaVuSans-32"/>
       <use x="63.623047" xlink:href="#DejaVuSans-30"/>
       <use x="127.246094" xlink:href="#DejaVuSans-30"/>
       <use x="190.869141" xlink:href="#DejaVuSans-30"/>
       <use x="254.492188" xlink:href="#DejaVuSans-30"/>
      </g>
     </g>
    </g>
    <g id="xtick_4">
     <g id="line2d_4">
      <g>
       <use style="stroke:#000000;stroke-width:0.8;" x="399.170506" xlink:href="#mf150eb2e02" y="228.14"/>
      </g>
     </g>
     <g id="text_4">
      <!-- 30000 -->
      <defs>
       <path d="M 40.578125 39.3125 
Q 47.65625 37.796875 51.625 33 
Q 55.609375 28.21875 55.609375 21.1875 
Q 55.609375 10.40625 48.1875 4.484375 
Q 40.765625 -1.421875 27.09375 -1.421875 
Q 22.515625 -1.421875 17.65625 -0.515625 
Q 12.796875 0.390625 7.625 2.203125 
L 7.625 11.71875 
Q 11.71875 9.328125 16.59375 8.109375 
Q 21.484375 6.890625 26.8125 6.890625 
Q 36.078125 6.890625 40.9375 10.546875 
Q 45.796875 14.203125 45.796875 21.1875 
Q 45.796875 27.640625 41.28125 31.265625 
Q 36.765625 34.90625 28.71875 34.90625 
L 20.21875 34.90625 
L 20.21875 43.015625 
L 29.109375 43.015625 
Q 36.375 43.015625 40.234375 45.921875 
Q 44.09375 48.828125 44.09375 54.296875 
Q 44.09375 59.90625 40.109375 62.90625 
Q 36.140625 65.921875 28.71875 65.921875 
Q 24.65625 65.921875 20.015625 65.03125 
Q 15.375 64.15625 9.8125 62.3125 
L 9.8125 71.09375 
Q 15.4375 72.65625 20.34375 73.4375 
Q 25.25 74.21875 29.59375 74.21875 
Q 40.828125 74.21875 47.359375 69.109375 
Q 53.90625 64.015625 53.90625 55.328125 
Q 53.90625 49.265625 50.4375 45.09375 
Q 46.96875 40.921875 40.578125 39.3125 
z
" id="DejaVuSans-33"/>
      </defs>
      <g transform="translate(383.264256 242.738437)scale(0.1 -0.1)">
       <use xlink:href="#DejaVuSans-33"/>
       <use x="63.623047" xlink:href="#DejaVuSans-30"/>
       <use x="127.246094" xlink:href="#DejaVuSans-30"/>
       <use x="190.869141" xlink:href="#DejaVuSans-30"/>
       <use x="254.492188" xlink:href="#DejaVuSans-30"/>
      </g>
     </g>
    </g>
    <g id="xtick_5">
     <g id="line2d_5">
      <g>
       <use style="stroke:#000000;stroke-width:0.8;" x="438.47057" xlink:href="#mf150eb2e02" y="228.14"/>
      </g>
     </g>
     <g id="text_5">
      <!-- 40000 -->
      <defs>
       <path d="M 37.796875 64.3125 
L 12.890625 25.390625 
L 37.796875 25.390625 
z
M 35.203125 72.90625 
L 47.609375 72.90625 
L 47.609375 25.390625 
L 58.015625 25.390625 
L 58.015625 17.1875 
L 47.609375 17.1875 
L 47.609375 0 
L 37.796875 0 
L 37.796875 17.1875 
L 4.890625 17.1875 
L 4.890625 26.703125 
z
" id="DejaVuSans-34"/>
      </defs>
      <g transform="translate(422.56432 242.738437)scale(0.1 -0.1)">
       <use xlink:href="#DejaVuSans-34"/>
       <use x="63.623047" xlink:href="#DejaVuSans-30"/>
       <use x="127.246094" xlink:href="#DejaVuSans-30"/>
       <use x="190.869141" xlink:href="#DejaVuSans-30"/>
       <use x="254.492188" xlink:href="#DejaVuSans-30"/>
      </g>
     </g>
    </g>
    <g id="xtick_6">
     <g id="line2d_6">
      <g>
       <use style="stroke:#000000;stroke-width:0.8;" x="477.770635" xlink:href="#mf150eb2e02" y="228.14"/>
      </g>
     </g>
     <g id="text_6">
      <!-- 50000 -->
      <defs>
       <path d="M 10.796875 72.90625 
L 49.515625 72.90625 
L 49.515625 64.59375 
L 19.828125 64.59375 
L 19.828125 46.734375 
Q 21.96875 47.46875 24.109375 47.828125 
Q 26.265625 48.1875 28.421875 48.1875 
Q 40.625 48.1875 47.75 41.5 
Q 54.890625 34.8125 54.890625 23.390625 
Q 54.890625 11.625 47.5625 5.09375 
Q 40.234375 -1.421875 26.90625 -1.421875 
Q 22.3125 -1.421875 17.546875 -0.640625 
Q 12.796875 0.140625 7.71875 1.703125 
L 7.71875 11.625 
Q 12.109375 9.234375 16.796875 8.0625 
Q 21.484375 6.890625 26.703125 6.890625 
Q 35.15625 6.890625 40.078125 11.328125 
Q 45.015625 15.765625 45.015625 23.390625 
Q 45.015625 31 40.078125 35.4375 
Q 35.15625 39.890625 26.703125 39.890625 
Q 22.75 39.890625 18.8125 39.015625 
Q 14.890625 38.140625 10.796875 36.28125 
z
" id="DejaVuSans-35"/>
      </defs>
      <g transform="translate(461.864385 242.738437)scale(0.1 -0.1)">
       <use xlink:href="#DejaVuSans-35"/>
       <use x="63.623047" xlink:href="#DejaVuSans-30"/>
       <use x="127.246094" xlink:href="#DejaVuSans-30"/>
       <use x="190.869141" xlink:href="#DejaVuSans-30"/>
       <use x="254.492188" xlink:href="#DejaVuSans-30"/>
      </g>
     </g>
    </g>
    <g id="xtick_7">
     <g id="line2d_7">
      <g>
       <use style="stroke:#000000;stroke-width:0.8;" x="517.070699" xlink:href="#mf150eb2e02" y="228.14"/>
      </g>
     </g>
     <g id="text_7">
      <!-- 60000 -->
      <defs>
       <path d="M 33.015625 40.375 
Q 26.375 40.375 22.484375 35.828125 
Q 18.609375 31.296875 18.609375 23.390625 
Q 18.609375 15.53125 22.484375 10.953125 
Q 26.375 6.390625 33.015625 6.390625 
Q 39.65625 6.390625 43.53125 10.953125 
Q 47.40625 15.53125 47.40625 23.390625 
Q 47.40625 31.296875 43.53125 35.828125 
Q 39.65625 40.375 33.015625 40.375 
z
M 52.59375 71.296875 
L 52.59375 62.3125 
Q 48.875 64.0625 45.09375 64.984375 
Q 41.3125 65.921875 37.59375 65.921875 
Q 27.828125 65.921875 22.671875 59.328125 
Q 17.53125 52.734375 16.796875 39.40625 
Q 19.671875 43.65625 24.015625 45.921875 
Q 28.375 48.1875 33.59375 48.1875 
Q 44.578125 48.1875 50.953125 41.515625 
Q 57.328125 34.859375 57.328125 23.390625 
Q 57.328125 12.15625 50.6875 5.359375 
Q 44.046875 -1.421875 33.015625 -1.421875 
Q 20.359375 -1.421875 13.671875 8.265625 
Q 6.984375 17.96875 6.984375 36.375 
Q 6.984375 53.65625 15.1875 63.9375 
Q 23.390625 74.21875 37.203125 74.21875 
Q 40.921875 74.21875 44.703125 73.484375 
Q 48.484375 72.75 52.59375 71.296875 
z
" id="DejaVuSans-36"/>
      </defs>
      <g transform="translate(501.164449 242.738437)scale(0.1 -0.1)">
       <use xlink:href="#DejaVuSans-36"/>
       <use x="63.623047" xlink:href="#DejaVuSans-30"/>
       <use x="127.246094" xlink:href="#DejaVuSans-30"/>
       <use x="190.869141" xlink:href="#DejaVuSans-30"/>
       <use x="254.492188" xlink:href="#DejaVuSans-30"/>
      </g>
     </g>
    </g>
    <g id="xtick_8">
     <g id="line2d_8">
      <g>
       <use style="stroke:#000000;stroke-width:0.8;" x="556.370764" xlink:href="#mf150eb2e02" y="228.14"/>
      </g>
     </g>
     <g id="text_8">
      <!-- 70000 -->
      <defs>
       <path d="M 8.203125 72.90625 
L 55.078125 72.90625 
L 55.078125 68.703125 
L 28.609375 0 
L 18.3125 0 
L 43.21875 64.59375 
L 8.203125 64.59375 
z
" id="DejaVuSans-37"/>
      </defs>
      <g transform="translate(540.464514 242.738437)scale(0.1 -0.1)">
       <use xlink:href="#DejaVuSans-37"/>
       <use x="63.623047" xlink:href="#DejaVuSans-30"/>
       <use x="127.246094" xlink:href="#DejaVuSans-30"/>
       <use x="190.869141" xlink:href="#DejaVuSans-30"/>
       <use x="254.492188" xlink:href="#DejaVuSans-30"/>
      </g>
     </g>
    </g>
    <g id="xtick_9">
     <g id="line2d_9">
      <g>
       <use style="stroke:#000000;stroke-width:0.8;" x="595.670828" xlink:href="#mf150eb2e02" y="228.14"/>
      </g>
     </g>
     <g id="text_9">
      <!-- 80000 -->
      <defs>
       <path d="M 31.78125 34.625 
Q 24.75 34.625 20.71875 30.859375 
Q 16.703125 27.09375 16.703125 20.515625 
Q 16.703125 13.921875 20.71875 10.15625 
Q 24.75 6.390625 31.78125 6.390625 
Q 38.8125 6.390625 42.859375 10.171875 
Q 46.921875 13.96875 46.921875 20.515625 
Q 46.921875 27.09375 42.890625 30.859375 
Q 38.875 34.625 31.78125 34.625 
z
M 21.921875 38.8125 
Q 15.578125 40.375 12.03125 44.71875 
Q 8.5 49.078125 8.5 55.328125 
Q 8.5 64.0625 14.71875 69.140625 
Q 20.953125 74.21875 31.78125 74.21875 
Q 42.671875 74.21875 48.875 69.140625 
Q 55.078125 64.0625 55.078125 55.328125 
Q 55.078125 49.078125 51.53125 44.71875 
Q 48 40.375 41.703125 38.8125 
Q 48.828125 37.15625 52.796875 32.3125 
Q 56.78125 27.484375 56.78125 20.515625 
Q 56.78125 9.90625 50.3125 4.234375 
Q 43.84375 -1.421875 31.78125 -1.421875 
Q 19.734375 -1.421875 13.25 4.234375 
Q 6.78125 9.90625 6.78125 20.515625 
Q 6.78125 27.484375 10.78125 32.3125 
Q 14.796875 37.15625 21.921875 38.8125 
z
M 18.3125 54.390625 
Q 18.3125 48.734375 21.84375 45.5625 
Q 25.390625 42.390625 31.78125 42.390625 
Q 38.140625 42.390625 41.71875 45.5625 
Q 45.3125 48.734375 45.3125 54.390625 
Q 45.3125 60.0625 41.71875 63.234375 
Q 38.140625 66.40625 31.78125 66.40625 
Q 25.390625 66.40625 21.84375 63.234375 
Q 18.3125 60.0625 18.3125 54.390625 
z
" id="DejaVuSans-38"/>
      </defs>
      <g transform="translate(579.764578 242.738437)scale(0.1 -0.1)">
       <use xlink:href="#DejaVuSans-38"/>
       <use x="63.623047" xlink:href="#DejaVuSans-30"/>
       <use x="127.246094" xlink:href="#DejaVuSans-30"/>
       <use x="190.869141" xlink:href="#DejaVuSans-30"/>
       <use x="254.492188" xlink:href="#DejaVuSans-30"/>
      </g>
     </g>
    </g>
   </g>
   <g id="matplotlib.axis_2">
    <g id="ytick_1">
     <g id="line2d_10">
      <defs>
       <path d="M 0 0 
L -3.5 0 
" id="mdd89e91b85" style="stroke:#000000;stroke-width:0.8;"/>
      </defs>
      <g>
       <use style="stroke:#000000;stroke-width:0.8;" x="281.270312" xlink:href="#mdd89e91b85" y="212.608571"/>
      </g>
     </g>
     <g id="text_10">
      <!-- Loan originated -->
      <defs>
       <path d="M 9.8125 72.90625 
L 19.671875 72.90625 
L 19.671875 8.296875 
L 55.171875 8.296875 
L 55.171875 0 
L 9.8125 0 
z
" id="DejaVuSans-4c"/>
       <path d="M 30.609375 48.390625 
Q 23.390625 48.390625 19.1875 42.75 
Q 14.984375 37.109375 14.984375 27.296875 
Q 14.984375 17.484375 19.15625 11.84375 
Q 23.34375 6.203125 30.609375 6.203125 
Q 37.796875 6.203125 41.984375 11.859375 
Q 46.1875 17.53125 46.1875 27.296875 
Q 46.1875 37.015625 41.984375 42.703125 
Q 37.796875 48.390625 30.609375 48.390625 
z
M 30.609375 56 
Q 42.328125 56 49.015625 48.375 
Q 55.71875 40.765625 55.71875 27.296875 
Q 55.71875 13.875 49.015625 6.21875 
Q 42.328125 -1.421875 30.609375 -1.421875 
Q 18.84375 -1.421875 12.171875 6.21875 
Q 5.515625 13.875 5.515625 27.296875 
Q 5.515625 40.765625 12.171875 48.375 
Q 18.84375 56 30.609375 56 
z
" id="DejaVuSans-6f"/>
       <path d="M 34.28125 27.484375 
Q 23.390625 27.484375 19.1875 25 
Q 14.984375 22.515625 14.984375 16.5 
Q 14.984375 11.71875 18.140625 8.90625 
Q 21.296875 6.109375 26.703125 6.109375 
Q 34.1875 6.109375 38.703125 11.40625 
Q 43.21875 16.703125 43.21875 25.484375 
L 43.21875 27.484375 
z
M 52.203125 31.203125 
L 52.203125 0 
L 43.21875 0 
L 43.21875 8.296875 
Q 40.140625 3.328125 35.546875 0.953125 
Q 30.953125 -1.421875 24.3125 -1.421875 
Q 15.921875 -1.421875 10.953125 3.296875 
Q 6 8.015625 6 15.921875 
Q 6 25.140625 12.171875 29.828125 
Q 18.359375 34.515625 30.609375 34.515625 
L 43.21875 34.515625 
L 43.21875 35.40625 
Q 43.21875 41.609375 39.140625 45 
Q 35.0625 48.390625 27.6875 48.390625 
Q 23 48.390625 18.546875 47.265625 
Q 14.109375 46.140625 10.015625 43.890625 
L 10.015625 52.203125 
Q 14.9375 54.109375 19.578125 55.046875 
Q 24.21875 56 28.609375 56 
Q 40.484375 56 46.34375 49.84375 
Q 52.203125 43.703125 52.203125 31.203125 
z
" id="DejaVuSans-61"/>
       <path d="M 54.890625 33.015625 
L 54.890625 0 
L 45.90625 0 
L 45.90625 32.71875 
Q 45.90625 40.484375 42.875 44.328125 
Q 39.84375 48.1875 33.796875 48.1875 
Q 26.515625 48.1875 22.3125 43.546875 
Q 18.109375 38.921875 18.109375 30.90625 
L 18.109375 0 
L 9.078125 0 
L 9.078125 54.6875 
L 18.109375 54.6875 
L 18.109375 46.1875 
Q 21.34375 51.125 25.703125 53.5625 
Q 30.078125 56 35.796875 56 
Q 45.21875 56 50.046875 50.171875 
Q 54.890625 44.34375 54.890625 33.015625 
z
" id="DejaVuSans-6e"/>
       <path id="DejaVuSans-20"/>
       <path d="M 41.109375 46.296875 
Q 39.59375 47.171875 37.8125 47.578125 
Q 36.03125 48 33.890625 48 
Q 26.265625 48 22.1875 43.046875 
Q 18.109375 38.09375 18.109375 28.8125 
L 18.109375 0 
L 9.078125 0 
L 9.078125 54.6875 
L 18.109375 54.6875 
L 18.109375 46.1875 
Q 20.953125 51.171875 25.484375 53.578125 
Q 30.03125 56 36.53125 56 
Q 37.453125 56 38.578125 55.875 
Q 39.703125 55.765625 41.0625 55.515625 
z
" id="DejaVuSans-72"/>
       <path d="M 9.421875 54.6875 
L 18.40625 54.6875 
L 18.40625 0 
L 9.421875 0 
z
M 9.421875 75.984375 
L 18.40625 75.984375 
L 18.40625 64.59375 
L 9.421875 64.59375 
z
" id="DejaVuSans-69"/>
       <path d="M 45.40625 27.984375 
Q 45.40625 37.75 41.375 43.109375 
Q 37.359375 48.484375 30.078125 48.484375 
Q 22.859375 48.484375 18.828125 43.109375 
Q 14.796875 37.75 14.796875 27.984375 
Q 14.796875 18.265625 18.828125 12.890625 
Q 22.859375 7.515625 30.078125 7.515625 
Q 37.359375 7.515625 41.375 12.890625 
Q 45.40625 18.265625 45.40625 27.984375 
z
M 54.390625 6.78125 
Q 54.390625 -7.171875 48.1875 -13.984375 
Q 42 -20.796875 29.203125 -20.796875 
Q 24.46875 -20.796875 20.265625 -20.09375 
Q 16.0625 -19.390625 12.109375 -17.921875 
L 12.109375 -9.1875 
Q 16.0625 -11.328125 19.921875 -12.34375 
Q 23.78125 -13.375 27.78125 -13.375 
Q 36.625 -13.375 41.015625 -8.765625 
Q 45.40625 -4.15625 45.40625 5.171875 
L 45.40625 9.625 
Q 42.625 4.78125 38.28125 2.390625 
Q 33.9375 0 27.875 0 
Q 17.828125 0 11.671875 7.65625 
Q 5.515625 15.328125 5.515625 27.984375 
Q 5.515625 40.671875 11.671875 48.328125 
Q 17.828125 56 27.875 56 
Q 33.9375 56 38.28125 53.609375 
Q 42.625 51.21875 45.40625 46.390625 
L 45.40625 54.6875 
L 54.390625 54.6875 
z
" id="DejaVuSans-67"/>
       <path d="M 18.3125 70.21875 
L 18.3125 54.6875 
L 36.8125 54.6875 
L 36.8125 47.703125 
L 18.3125 47.703125 
L 18.3125 18.015625 
Q 18.3125 11.328125 20.140625 9.421875 
Q 21.96875 7.515625 27.59375 7.515625 
L 36.8125 7.515625 
L 36.8125 0 
L 27.59375 0 
Q 17.1875 0 13.234375 3.875 
Q 9.28125 7.765625 9.28125 18.015625 
L 9.28125 47.703125 
L 2.6875 47.703125 
L 2.6875 54.6875 
L 9.28125 54.6875 
L 9.28125 70.21875 
z
" id="DejaVuSans-74"/>
       <path d="M 56.203125 29.59375 
L 56.203125 25.203125 
L 14.890625 25.203125 
Q 15.484375 15.921875 20.484375 11.0625 
Q 25.484375 6.203125 34.421875 6.203125 
Q 39.59375 6.203125 44.453125 7.46875 
Q 49.3125 8.734375 54.109375 11.28125 
L 54.109375 2.78125 
Q 49.265625 0.734375 44.1875 -0.34375 
Q 39.109375 -1.421875 33.890625 -1.421875 
Q 20.796875 -1.421875 13.15625 6.1875 
Q 5.515625 13.8125 5.515625 26.8125 
Q 5.515625 40.234375 12.765625 48.109375 
Q 20.015625 56 32.328125 56 
Q 43.359375 56 49.78125 48.890625 
Q 56.203125 41.796875 56.203125 29.59375 
z
M 47.21875 32.234375 
Q 47.125 39.59375 43.09375 43.984375 
Q 39.0625 48.390625 32.421875 48.390625 
Q 24.90625 48.390625 20.390625 44.140625 
Q 15.875 39.890625 15.1875 32.171875 
z
" id="DejaVuSans-65"/>
       <path d="M 45.40625 46.390625 
L 45.40625 75.984375 
L 54.390625 75.984375 
L 54.390625 0 
L 45.40625 0 
L 45.40625 8.203125 
Q 42.578125 3.328125 38.25 0.953125 
Q 33.9375 -1.421875 27.875 -1.421875 
Q 17.96875 -1.421875 11.734375 6.484375 
Q 5.515625 14.40625 5.515625 27.296875 
Q 5.515625 40.1875 11.734375 48.09375 
Q 17.96875 56 27.875 56 
Q 33.9375 56 38.25 53.625 
Q 42.578125 51.265625 45.40625 46.390625 
z
M 14.796875 27.296875 
Q 14.796875 17.390625 18.875 11.75 
Q 22.953125 6.109375 30.078125 6.109375 
Q 37.203125 6.109375 41.296875 11.75 
Q 45.40625 17.390625 45.40625 27.296875 
Q 45.40625 37.203125 41.296875 42.84375 
Q 37.203125 48.484375 30.078125 48.484375 
Q 22.953125 48.484375 18.875 42.84375 
Q 14.796875 37.203125 14.796875 27.296875 
z
" id="DejaVuSans-64"/>
      </defs>
      <g transform="translate(195.915625 216.40779)scale(0.1 -0.1)">
       <use xlink:href="#DejaVuSans-4c"/>
       <use x="55.697266" xlink:href="#DejaVuSans-6f"/>
       <use x="116.878906" xlink:href="#DejaVuSans-61"/>
       <use x="178.158203" xlink:href="#DejaVuSans-6e"/>
       <use x="241.537109" xlink:href="#DejaVuSans-20"/>
       <use x="273.324219" xlink:href="#DejaVuSans-6f"/>
       <use x="334.505859" xlink:href="#DejaVuSans-72"/>
       <use x="375.619141" xlink:href="#DejaVuSans-69"/>
       <use x="403.402344" xlink:href="#DejaVuSans-67"/>
       <use x="466.878906" xlink:href="#DejaVuSans-69"/>
       <use x="494.662109" xlink:href="#DejaVuSans-6e"/>
       <use x="558.041016" xlink:href="#DejaVuSans-61"/>
       <use x="619.320312" xlink:href="#DejaVuSans-74"/>
       <use x="658.529297" xlink:href="#DejaVuSans-65"/>
       <use x="720.052734" xlink:href="#DejaVuSans-64"/>
      </g>
     </g>
    </g>
    <g id="ytick_2">
     <g id="line2d_11">
      <g>
       <use style="stroke:#000000;stroke-width:0.8;" x="281.270312" xlink:href="#mdd89e91b85" y="181.545714"/>
      </g>
     </g>
     <g id="text_11">
      <!-- Application denied by financial institution -->
      <defs>
       <path d="M 34.1875 63.1875 
L 20.796875 26.90625 
L 47.609375 26.90625 
z
M 28.609375 72.90625 
L 39.796875 72.90625 
L 67.578125 0 
L 57.328125 0 
L 50.6875 18.703125 
L 17.828125 18.703125 
L 11.1875 0 
L 0.78125 0 
z
" id="DejaVuSans-41"/>
       <path d="M 18.109375 8.203125 
L 18.109375 -20.796875 
L 9.078125 -20.796875 
L 9.078125 54.6875 
L 18.109375 54.6875 
L 18.109375 46.390625 
Q 20.953125 51.265625 25.265625 53.625 
Q 29.59375 56 35.59375 56 
Q 45.5625 56 51.78125 48.09375 
Q 58.015625 40.1875 58.015625 27.296875 
Q 58.015625 14.40625 51.78125 6.484375 
Q 45.5625 -1.421875 35.59375 -1.421875 
Q 29.59375 -1.421875 25.265625 0.953125 
Q 20.953125 3.328125 18.109375 8.203125 
z
M 48.6875 27.296875 
Q 48.6875 37.203125 44.609375 42.84375 
Q 40.53125 48.484375 33.40625 48.484375 
Q 26.265625 48.484375 22.1875 42.84375 
Q 18.109375 37.203125 18.109375 27.296875 
Q 18.109375 17.390625 22.1875 11.75 
Q 26.265625 6.109375 33.40625 6.109375 
Q 40.53125 6.109375 44.609375 11.75 
Q 48.6875 17.390625 48.6875 27.296875 
z
" id="DejaVuSans-70"/>
       <path d="M 9.421875 75.984375 
L 18.40625 75.984375 
L 18.40625 0 
L 9.421875 0 
z
" id="DejaVuSans-6c"/>
       <path d="M 48.78125 52.59375 
L 48.78125 44.1875 
Q 44.96875 46.296875 41.140625 47.34375 
Q 37.3125 48.390625 33.40625 48.390625 
Q 24.65625 48.390625 19.8125 42.84375 
Q 14.984375 37.3125 14.984375 27.296875 
Q 14.984375 17.28125 19.8125 11.734375 
Q 24.65625 6.203125 33.40625 6.203125 
Q 37.3125 6.203125 41.140625 7.25 
Q 44.96875 8.296875 48.78125 10.40625 
L 48.78125 2.09375 
Q 45.015625 0.34375 40.984375 -0.53125 
Q 36.96875 -1.421875 32.421875 -1.421875 
Q 20.0625 -1.421875 12.78125 6.34375 
Q 5.515625 14.109375 5.515625 27.296875 
Q 5.515625 40.671875 12.859375 48.328125 
Q 20.21875 56 33.015625 56 
Q 37.15625 56 41.109375 55.140625 
Q 45.0625 54.296875 48.78125 52.59375 
z
" id="DejaVuSans-63"/>
       <path d="M 48.6875 27.296875 
Q 48.6875 37.203125 44.609375 42.84375 
Q 40.53125 48.484375 33.40625 48.484375 
Q 26.265625 48.484375 22.1875 42.84375 
Q 18.109375 37.203125 18.109375 27.296875 
Q 18.109375 17.390625 22.1875 11.75 
Q 26.265625 6.109375 33.40625 6.109375 
Q 40.53125 6.109375 44.609375 11.75 
Q 48.6875 17.390625 48.6875 27.296875 
z
M 18.109375 46.390625 
Q 20.953125 51.265625 25.265625 53.625 
Q 29.59375 56 35.59375 56 
Q 45.5625 56 51.78125 48.09375 
Q 58.015625 40.1875 58.015625 27.296875 
Q 58.015625 14.40625 51.78125 6.484375 
Q 45.5625 -1.421875 35.59375 -1.421875 
Q 29.59375 -1.421875 25.265625 0.953125 
Q 20.953125 3.328125 18.109375 8.203125 
L 18.109375 0 
L 9.078125 0 
L 9.078125 75.984375 
L 18.109375 75.984375 
z
" id="DejaVuSans-62"/>
       <path d="M 32.171875 -5.078125 
Q 28.375 -14.84375 24.75 -17.8125 
Q 21.140625 -20.796875 15.09375 -20.796875 
L 7.90625 -20.796875 
L 7.90625 -13.28125 
L 13.1875 -13.28125 
Q 16.890625 -13.28125 18.9375 -11.515625 
Q 21 -9.765625 23.484375 -3.21875 
L 25.09375 0.875 
L 2.984375 54.6875 
L 12.5 54.6875 
L 29.59375 11.921875 
L 46.6875 54.6875 
L 56.203125 54.6875 
z
" id="DejaVuSans-79"/>
       <path d="M 37.109375 75.984375 
L 37.109375 68.5 
L 28.515625 68.5 
Q 23.6875 68.5 21.796875 66.546875 
Q 19.921875 64.59375 19.921875 59.515625 
L 19.921875 54.6875 
L 34.71875 54.6875 
L 34.71875 47.703125 
L 19.921875 47.703125 
L 19.921875 0 
L 10.890625 0 
L 10.890625 47.703125 
L 2.296875 47.703125 
L 2.296875 54.6875 
L 10.890625 54.6875 
L 10.890625 58.5 
Q 10.890625 67.625 15.140625 71.796875 
Q 19.390625 75.984375 28.609375 75.984375 
z
" id="DejaVuSans-66"/>
       <path d="M 44.28125 53.078125 
L 44.28125 44.578125 
Q 40.484375 46.53125 36.375 47.5 
Q 32.28125 48.484375 27.875 48.484375 
Q 21.1875 48.484375 17.84375 46.4375 
Q 14.5 44.390625 14.5 40.28125 
Q 14.5 37.15625 16.890625 35.375 
Q 19.28125 33.59375 26.515625 31.984375 
L 29.59375 31.296875 
Q 39.15625 29.25 43.1875 25.515625 
Q 47.21875 21.78125 47.21875 15.09375 
Q 47.21875 7.46875 41.1875 3.015625 
Q 35.15625 -1.421875 24.609375 -1.421875 
Q 20.21875 -1.421875 15.453125 -0.5625 
Q 10.6875 0.296875 5.421875 2 
L 5.421875 11.28125 
Q 10.40625 8.6875 15.234375 7.390625 
Q 20.0625 6.109375 24.8125 6.109375 
Q 31.15625 6.109375 34.5625 8.28125 
Q 37.984375 10.453125 37.984375 14.40625 
Q 37.984375 18.0625 35.515625 20.015625 
Q 33.0625 21.96875 24.703125 23.78125 
L 21.578125 24.515625 
Q 13.234375 26.265625 9.515625 29.90625 
Q 5.8125 33.546875 5.8125 39.890625 
Q 5.8125 47.609375 11.28125 51.796875 
Q 16.75 56 26.8125 56 
Q 31.78125 56 36.171875 55.265625 
Q 40.578125 54.546875 44.28125 53.078125 
z
" id="DejaVuSans-73"/>
       <path d="M 8.5 21.578125 
L 8.5 54.6875 
L 17.484375 54.6875 
L 17.484375 21.921875 
Q 17.484375 14.15625 20.5 10.265625 
Q 23.53125 6.390625 29.59375 6.390625 
Q 36.859375 6.390625 41.078125 11.03125 
Q 45.3125 15.671875 45.3125 23.6875 
L 45.3125 54.6875 
L 54.296875 54.6875 
L 54.296875 0 
L 45.3125 0 
L 45.3125 8.40625 
Q 42.046875 3.421875 37.71875 1 
Q 33.40625 -1.421875 27.6875 -1.421875 
Q 18.265625 -1.421875 13.375 4.4375 
Q 8.5 10.296875 8.5 21.578125 
z
M 31.109375 56 
z
" id="DejaVuSans-75"/>
      </defs>
      <g transform="translate(66.576562 185.344933)scale(0.1 -0.1)">
       <use xlink:href="#DejaVuSans-41"/>
       <use x="68.408203" xlink:href="#DejaVuSans-70"/>
       <use x="131.884766" xlink:href="#DejaVuSans-70"/>
       <use x="195.361328" xlink:href="#DejaVuSans-6c"/>
       <use x="223.144531" xlink:href="#DejaVuSans-69"/>
       <use x="250.927734" xlink:href="#DejaVuSans-63"/>
       <use x="305.908203" xlink:href="#DejaVuSans-61"/>
       <use x="367.1875" xlink:href="#DejaVuSans-74"/>
       <use x="406.396484" xlink:href="#DejaVuSans-69"/>
       <use x="434.179688" xlink:href="#DejaVuSans-6f"/>
       <use x="495.361328" xlink:href="#DejaVuSans-6e"/>
       <use x="558.740234" xlink:href="#DejaVuSans-20"/>
       <use x="590.527344" xlink:href="#DejaVuSans-64"/>
       <use x="654.003906" xlink:href="#DejaVuSans-65"/>
       <use x="715.527344" xlink:href="#DejaVuSans-6e"/>
       <use x="778.90625" xlink:href="#DejaVuSans-69"/>
       <use x="806.689453" xlink:href="#DejaVuSans-65"/>
       <use x="868.212891" xlink:href="#DejaVuSans-64"/>
       <use x="931.689453" xlink:href="#DejaVuSans-20"/>
       <use x="963.476562" xlink:href="#DejaVuSans-62"/>
       <use x="1026.953125" xlink:href="#DejaVuSans-79"/>
       <use x="1086.132812" xlink:href="#DejaVuSans-20"/>
       <use x="1117.919922" xlink:href="#DejaVuSans-66"/>
       <use x="1153.125" xlink:href="#DejaVuSans-69"/>
       <use x="1180.908203" xlink:href="#DejaVuSans-6e"/>
       <use x="1244.287109" xlink:href="#DejaVuSans-61"/>
       <use x="1305.566406" xlink:href="#DejaVuSans-6e"/>
       <use x="1368.945312" xlink:href="#DejaVuSans-63"/>
       <use x="1423.925781" xlink:href="#DejaVuSans-69"/>
       <use x="1451.708984" xlink:href="#DejaVuSans-61"/>
       <use x="1512.988281" xlink:href="#DejaVuSans-6c"/>
       <use x="1540.771484" xlink:href="#DejaVuSans-20"/>
       <use x="1572.558594" xlink:href="#DejaVuSans-69"/>
       <use x="1600.341797" xlink:href="#DejaVuSans-6e"/>
       <use x="1663.720703" xlink:href="#DejaVuSans-73"/>
       <use x="1715.820312" xlink:href="#DejaVuSans-74"/>
       <use x="1755.029297" xlink:href="#DejaVuSans-69"/>
       <use x="1782.8125" xlink:href="#DejaVuSans-74"/>
       <use x="1822.021484" xlink:href="#DejaVuSans-75"/>
       <use x="1885.400391" xlink:href="#DejaVuSans-74"/>
       <use x="1924.609375" xlink:href="#DejaVuSans-69"/>
       <use x="1952.392578" xlink:href="#DejaVuSans-6f"/>
       <use x="2013.574219" xlink:href="#DejaVuSans-6e"/>
      </g>
     </g>
    </g>
    <g id="ytick_3">
     <g id="line2d_12">
      <g>
       <use style="stroke:#000000;stroke-width:0.8;" x="281.270312" xlink:href="#mdd89e91b85" y="150.482857"/>
      </g>
     </g>
     <g id="text_12">
      <!-- Application withdrawn by applicant -->
      <defs>
       <path d="M 4.203125 54.6875 
L 13.1875 54.6875 
L 24.421875 12.015625 
L 35.59375 54.6875 
L 46.1875 54.6875 
L 57.421875 12.015625 
L 68.609375 54.6875 
L 77.59375 54.6875 
L 63.28125 0 
L 52.6875 0 
L 40.921875 44.828125 
L 29.109375 0 
L 18.5 0 
z
" id="DejaVuSans-77"/>
       <path d="M 54.890625 33.015625 
L 54.890625 0 
L 45.90625 0 
L 45.90625 32.71875 
Q 45.90625 40.484375 42.875 44.328125 
Q 39.84375 48.1875 33.796875 48.1875 
Q 26.515625 48.1875 22.3125 43.546875 
Q 18.109375 38.921875 18.109375 30.90625 
L 18.109375 0 
L 9.078125 0 
L 9.078125 75.984375 
L 18.109375 75.984375 
L 18.109375 46.1875 
Q 21.34375 51.125 25.703125 53.5625 
Q 30.078125 56 35.796875 56 
Q 45.21875 56 50.046875 50.171875 
Q 54.890625 44.34375 54.890625 33.015625 
z
" id="DejaVuSans-68"/>
      </defs>
      <g transform="translate(98.010937 154.282076)scale(0.1 -0.1)">
       <use xlink:href="#DejaVuSans-41"/>
       <use x="68.408203" xlink:href="#DejaVuSans-70"/>
       <use x="131.884766" xlink:href="#DejaVuSans-70"/>
       <use x="195.361328" xlink:href="#DejaVuSans-6c"/>
       <use x="223.144531" xlink:href="#DejaVuSans-69"/>
       <use x="250.927734" xlink:href="#DejaVuSans-63"/>
       <use x="305.908203" xlink:href="#DejaVuSans-61"/>
       <use x="367.1875" xlink:href="#DejaVuSans-74"/>
       <use x="406.396484" xlink:href="#DejaVuSans-69"/>
       <use x="434.179688" xlink:href="#DejaVuSans-6f"/>
       <use x="495.361328" xlink:href="#DejaVuSans-6e"/>
       <use x="558.740234" xlink:href="#DejaVuSans-20"/>
       <use x="590.527344" xlink:href="#DejaVuSans-77"/>
       <use x="672.314453" xlink:href="#DejaVuSans-69"/>
       <use x="700.097656" xlink:href="#DejaVuSans-74"/>
       <use x="739.306641" xlink:href="#DejaVuSans-68"/>
       <use x="802.685547" xlink:href="#DejaVuSans-64"/>
       <use x="866.162109" xlink:href="#DejaVuSans-72"/>
       <use x="907.275391" xlink:href="#DejaVuSans-61"/>
       <use x="968.554688" xlink:href="#DejaVuSans-77"/>
       <use x="1050.341797" xlink:href="#DejaVuSans-6e"/>
       <use x="1113.720703" xlink:href="#DejaVuSans-20"/>
       <use x="1145.507812" xlink:href="#DejaVuSans-62"/>
       <use x="1208.984375" xlink:href="#DejaVuSans-79"/>
       <use x="1268.164062" xlink:href="#DejaVuSans-20"/>
       <use x="1299.951172" xlink:href="#DejaVuSans-61"/>
       <use x="1361.230469" xlink:href="#DejaVuSans-70"/>
       <use x="1424.707031" xlink:href="#DejaVuSans-70"/>
       <use x="1488.183594" xlink:href="#DejaVuSans-6c"/>
       <use x="1515.966797" xlink:href="#DejaVuSans-69"/>
       <use x="1543.75" xlink:href="#DejaVuSans-63"/>
       <use x="1598.730469" xlink:href="#DejaVuSans-61"/>
       <use x="1660.009766" xlink:href="#DejaVuSans-6e"/>
       <use x="1723.388672" xlink:href="#DejaVuSans-74"/>
      </g>
     </g>
    </g>
    <g id="ytick_4">
     <g id="line2d_13">
      <g>
       <use style="stroke:#000000;stroke-width:0.8;" x="281.270312" xlink:href="#mdd89e91b85" y="119.42"/>
      </g>
     </g>
     <g id="text_13">
      <!-- File closed for incompleteness -->
      <defs>
       <path d="M 9.8125 72.90625 
L 51.703125 72.90625 
L 51.703125 64.59375 
L 19.671875 64.59375 
L 19.671875 43.109375 
L 48.578125 43.109375 
L 48.578125 34.8125 
L 19.671875 34.8125 
L 19.671875 0 
L 9.8125 0 
z
" id="DejaVuSans-46"/>
       <path d="M 52 44.1875 
Q 55.375 50.25 60.0625 53.125 
Q 64.75 56 71.09375 56 
Q 79.640625 56 84.28125 50.015625 
Q 88.921875 44.046875 88.921875 33.015625 
L 88.921875 0 
L 79.890625 0 
L 79.890625 32.71875 
Q 79.890625 40.578125 77.09375 44.375 
Q 74.3125 48.1875 68.609375 48.1875 
Q 61.625 48.1875 57.5625 43.546875 
Q 53.515625 38.921875 53.515625 30.90625 
L 53.515625 0 
L 44.484375 0 
L 44.484375 32.71875 
Q 44.484375 40.625 41.703125 44.40625 
Q 38.921875 48.1875 33.109375 48.1875 
Q 26.21875 48.1875 22.15625 43.53125 
Q 18.109375 38.875 18.109375 30.90625 
L 18.109375 0 
L 9.078125 0 
L 9.078125 54.6875 
L 18.109375 54.6875 
L 18.109375 46.1875 
Q 21.1875 51.21875 25.484375 53.609375 
Q 29.78125 56 35.6875 56 
Q 41.65625 56 45.828125 52.96875 
Q 50 49.953125 52 44.1875 
z
" id="DejaVuSans-6d"/>
      </defs>
      <g transform="translate(122.69375 123.219219)scale(0.1 -0.1)">
       <use xlink:href="#DejaVuSans-46"/>
       <use x="57.410156" xlink:href="#DejaVuSans-69"/>
       <use x="85.193359" xlink:href="#DejaVuSans-6c"/>
       <use x="112.976562" xlink:href="#DejaVuSans-65"/>
       <use x="174.5" xlink:href="#DejaVuSans-20"/>
       <use x="206.287109" xlink:href="#DejaVuSans-63"/>
       <use x="261.267578" xlink:href="#DejaVuSans-6c"/>
       <use x="289.050781" xlink:href="#DejaVuSans-6f"/>
       <use x="350.232422" xlink:href="#DejaVuSans-73"/>
       <use x="402.332031" xlink:href="#DejaVuSans-65"/>
       <use x="463.855469" xlink:href="#DejaVuSans-64"/>
       <use x="527.332031" xlink:href="#DejaVuSans-20"/>
       <use x="559.119141" xlink:href="#DejaVuSans-66"/>
       <use x="594.324219" xlink:href="#DejaVuSans-6f"/>
       <use x="655.505859" xlink:href="#DejaVuSans-72"/>
       <use x="696.619141" xlink:href="#DejaVuSans-20"/>
       <use x="728.40625" xlink:href="#DejaVuSans-69"/>
       <use x="756.189453" xlink:href="#DejaVuSans-6e"/>
       <use x="819.568359" xlink:href="#DejaVuSans-63"/>
       <use x="874.548828" xlink:href="#DejaVuSans-6f"/>
       <use x="935.730469" xlink:href="#DejaVuSans-6d"/>
       <use x="1033.142578" xlink:href="#DejaVuSans-70"/>
       <use x="1096.619141" xlink:href="#DejaVuSans-6c"/>
       <use x="1124.402344" xlink:href="#DejaVuSans-65"/>
       <use x="1185.925781" xlink:href="#DejaVuSans-74"/>
       <use x="1225.134766" xlink:href="#DejaVuSans-65"/>
       <use x="1286.658203" xlink:href="#DejaVuSans-6e"/>
       <use x="1350.037109" xlink:href="#DejaVuSans-65"/>
       <use x="1411.560547" xlink:href="#DejaVuSans-73"/>
       <use x="1463.660156" xlink:href="#DejaVuSans-73"/>
      </g>
     </g>
    </g>
    <g id="ytick_5">
     <g id="line2d_14">
      <g>
       <use style="stroke:#000000;stroke-width:0.8;" x="281.270312" xlink:href="#mdd89e91b85" y="88.357143"/>
      </g>
     </g>
     <g id="text_14">
      <!-- Application approved but not accepted -->
      <defs>
       <path d="M 2.984375 54.6875 
L 12.5 54.6875 
L 29.59375 8.796875 
L 46.6875 54.6875 
L 56.203125 54.6875 
L 35.6875 0 
L 23.484375 0 
z
" id="DejaVuSans-76"/>
      </defs>
      <g transform="translate(79.179687 92.156362)scale(0.1 -0.1)">
       <use xlink:href="#DejaVuSans-41"/>
       <use x="68.408203" xlink:href="#DejaVuSans-70"/>
       <use x="131.884766" xlink:href="#DejaVuSans-70"/>
       <use x="195.361328" xlink:href="#DejaVuSans-6c"/>
       <use x="223.144531" xlink:href="#DejaVuSans-69"/>
       <use x="250.927734" xlink:href="#DejaVuSans-63"/>
       <use x="305.908203" xlink:href="#DejaVuSans-61"/>
       <use x="367.1875" xlink:href="#DejaVuSans-74"/>
       <use x="406.396484" xlink:href="#DejaVuSans-69"/>
       <use x="434.179688" xlink:href="#DejaVuSans-6f"/>
       <use x="495.361328" xlink:href="#DejaVuSans-6e"/>
       <use x="558.740234" xlink:href="#DejaVuSans-20"/>
       <use x="590.527344" xlink:href="#DejaVuSans-61"/>
       <use x="651.806641" xlink:href="#DejaVuSans-70"/>
       <use x="715.283203" xlink:href="#DejaVuSans-70"/>
       <use x="778.759766" xlink:href="#DejaVuSans-72"/>
       <use x="819.841797" xlink:href="#DejaVuSans-6f"/>
       <use x="881.023438" xlink:href="#DejaVuSans-76"/>
       <use x="940.203125" xlink:href="#DejaVuSans-65"/>
       <use x="1001.726562" xlink:href="#DejaVuSans-64"/>
       <use x="1065.203125" xlink:href="#DejaVuSans-20"/>
       <use x="1096.990234" xlink:href="#DejaVuSans-62"/>
       <use x="1160.466797" xlink:href="#DejaVuSans-75"/>
       <use x="1223.845703" xlink:href="#DejaVuSans-74"/>
       <use x="1263.054688" xlink:href="#DejaVuSans-20"/>
       <use x="1294.841797" xlink:href="#DejaVuSans-6e"/>
       <use x="1358.220703" xlink:href="#DejaVuSans-6f"/>
       <use x="1419.402344" xlink:href="#DejaVuSans-74"/>
       <use x="1458.611328" xlink:href="#DejaVuSans-20"/>
       <use x="1490.398438" xlink:href="#DejaVuSans-61"/>
       <use x="1551.677734" xlink:href="#DejaVuSans-63"/>
       <use x="1606.658203" xlink:href="#DejaVuSans-63"/>
       <use x="1661.638672" xlink:href="#DejaVuSans-65"/>
       <use x="1723.162109" xlink:href="#DejaVuSans-70"/>
       <use x="1786.638672" xlink:href="#DejaVuSans-74"/>
       <use x="1825.847656" xlink:href="#DejaVuSans-65"/>
       <use x="1887.371094" xlink:href="#DejaVuSans-64"/>
      </g>
     </g>
    </g>
    <g id="ytick_6">
     <g id="line2d_15">
      <g>
       <use style="stroke:#000000;stroke-width:0.8;" x="281.270312" xlink:href="#mdd89e91b85" y="57.294286"/>
      </g>
     </g>
     <g id="text_15">
      <!-- Preapproval request approved but not accepted -->
      <defs>
       <path d="M 19.671875 64.796875 
L 19.671875 37.40625 
L 32.078125 37.40625 
Q 38.96875 37.40625 42.71875 40.96875 
Q 46.484375 44.53125 46.484375 51.125 
Q 46.484375 57.671875 42.71875 61.234375 
Q 38.96875 64.796875 32.078125 64.796875 
z
M 9.8125 72.90625 
L 32.078125 72.90625 
Q 44.34375 72.90625 50.609375 67.359375 
Q 56.890625 61.8125 56.890625 51.125 
Q 56.890625 40.328125 50.609375 34.8125 
Q 44.34375 29.296875 32.078125 29.296875 
L 19.671875 29.296875 
L 19.671875 0 
L 9.8125 0 
z
" id="DejaVuSans-50"/>
       <path d="M 14.796875 27.296875 
Q 14.796875 17.390625 18.875 11.75 
Q 22.953125 6.109375 30.078125 6.109375 
Q 37.203125 6.109375 41.296875 11.75 
Q 45.40625 17.390625 45.40625 27.296875 
Q 45.40625 37.203125 41.296875 42.84375 
Q 37.203125 48.484375 30.078125 48.484375 
Q 22.953125 48.484375 18.875 42.84375 
Q 14.796875 37.203125 14.796875 27.296875 
z
M 45.40625 8.203125 
Q 42.578125 3.328125 38.25 0.953125 
Q 33.9375 -1.421875 27.875 -1.421875 
Q 17.96875 -1.421875 11.734375 6.484375 
Q 5.515625 14.40625 5.515625 27.296875 
Q 5.515625 40.1875 11.734375 48.09375 
Q 17.96875 56 27.875 56 
Q 33.9375 56 38.25 53.625 
Q 42.578125 51.265625 45.40625 46.390625 
L 45.40625 54.6875 
L 54.390625 54.6875 
L 54.390625 -20.796875 
L 45.40625 -20.796875 
z
" id="DejaVuSans-71"/>
      </defs>
      <g transform="translate(33.48125 61.093504)scale(0.1 -0.1)">
       <use xlink:href="#DejaVuSans-50"/>
       <use x="60.287109" xlink:href="#DejaVuSans-72"/>
       <use x="101.369141" xlink:href="#DejaVuSans-65"/>
       <use x="162.892578" xlink:href="#DejaVuSans-61"/>
       <use x="224.171875" xlink:href="#DejaVuSans-70"/>
       <use x="287.648438" xlink:href="#DejaVuSans-70"/>
       <use x="351.125" xlink:href="#DejaVuSans-72"/>
       <use x="392.207031" xlink:href="#DejaVuSans-6f"/>
       <use x="453.388672" xlink:href="#DejaVuSans-76"/>
       <use x="512.568359" xlink:href="#DejaVuSans-61"/>
       <use x="573.847656" xlink:href="#DejaVuSans-6c"/>
       <use x="601.630859" xlink:href="#DejaVuSans-20"/>
       <use x="633.417969" xlink:href="#DejaVuSans-72"/>
       <use x="674.5" xlink:href="#DejaVuSans-65"/>
       <use x="736.023438" xlink:href="#DejaVuSans-71"/>
       <use x="799.5" xlink:href="#DejaVuSans-75"/>
       <use x="862.878906" xlink:href="#DejaVuSans-65"/>
       <use x="924.402344" xlink:href="#DejaVuSans-73"/>
       <use x="976.501953" xlink:href="#DejaVuSans-74"/>
       <use x="1015.710938" xlink:href="#DejaVuSans-20"/>
       <use x="1047.498047" xlink:href="#DejaVuSans-61"/>
       <use x="1108.777344" xlink:href="#DejaVuSans-70"/>
       <use x="1172.253906" xlink:href="#DejaVuSans-70"/>
       <use x="1235.730469" xlink:href="#DejaVuSans-72"/>
       <use x="1276.8125" xlink:href="#DejaVuSans-6f"/>
       <use x="1337.994141" xlink:href="#DejaVuSans-76"/>
       <use x="1397.173828" xlink:href="#DejaVuSans-65"/>
       <use x="1458.697266" xlink:href="#DejaVuSans-64"/>
       <use x="1522.173828" xlink:href="#DejaVuSans-20"/>
       <use x="1553.960938" xlink:href="#DejaVuSans-62"/>
       <use x="1617.4375" xlink:href="#DejaVuSans-75"/>
       <use x="1680.816406" xlink:href="#DejaVuSans-74"/>
       <use x="1720.025391" xlink:href="#DejaVuSans-20"/>
       <use x="1751.8125" xlink:href="#DejaVuSans-6e"/>
       <use x="1815.191406" xlink:href="#DejaVuSans-6f"/>
       <use x="1876.373047" xlink:href="#DejaVuSans-74"/>
       <use x="1915.582031" xlink:href="#DejaVuSans-20"/>
       <use x="1947.369141" xlink:href="#DejaVuSans-61"/>
       <use x="2008.648438" xlink:href="#DejaVuSans-63"/>
       <use x="2063.628906" xlink:href="#DejaVuSans-63"/>
       <use x="2118.609375" xlink:href="#DejaVuSans-65"/>
       <use x="2180.132812" xlink:href="#DejaVuSans-70"/>
       <use x="2243.609375" xlink:href="#DejaVuSans-74"/>
       <use x="2282.818359" xlink:href="#DejaVuSans-65"/>
       <use x="2344.341797" xlink:href="#DejaVuSans-64"/>
      </g>
     </g>
    </g>
    <g id="ytick_7">
     <g id="line2d_16">
      <g>
       <use style="stroke:#000000;stroke-width:0.8;" x="281.270312" xlink:href="#mdd89e91b85" y="26.231429"/>
      </g>
     </g>
     <g id="text_16">
      <!-- Preapproval request denied by financial institution -->
      <g transform="translate(20.878125 30.030647)scale(0.1 -0.1)">
       <use xlink:href="#DejaVuSans-50"/>
       <use x="60.287109" xlink:href="#DejaVuSans-72"/>
       <use x="101.369141" xlink:href="#DejaVuSans-65"/>
       <use x="162.892578" xlink:href="#DejaVuSans-61"/>
       <use x="224.171875" xlink:href="#DejaVuSans-70"/>
       <use x="287.648438" xlink:href="#DejaVuSans-70"/>
       <use x="351.125" xlink:href="#DejaVuSans-72"/>
       <use x="392.207031" xlink:href="#DejaVuSans-6f"/>
       <use x="453.388672" xlink:href="#DejaVuSans-76"/>
       <use x="512.568359" xlink:href="#DejaVuSans-61"/>
       <use x="573.847656" xlink:href="#DejaVuSans-6c"/>
       <use x="601.630859" xlink:href="#DejaVuSans-20"/>
       <use x="633.417969" xlink:href="#DejaVuSans-72"/>
       <use x="674.5" xlink:href="#DejaVuSans-65"/>
       <use x="736.023438" xlink:href="#DejaVuSans-71"/>
       <use x="799.5" xlink:href="#DejaVuSans-75"/>
       <use x="862.878906" xlink:href="#DejaVuSans-65"/>
       <use x="924.402344" xlink:href="#DejaVuSans-73"/>
       <use x="976.501953" xlink:href="#DejaVuSans-74"/>
       <use x="1015.710938" xlink:href="#DejaVuSans-20"/>
       <use x="1047.498047" xlink:href="#DejaVuSans-64"/>
       <use x="1110.974609" xlink:href="#DejaVuSans-65"/>
       <use x="1172.498047" xlink:href="#DejaVuSans-6e"/>
       <use x="1235.876953" xlink:href="#DejaVuSans-69"/>
       <use x="1263.660156" xlink:href="#DejaVuSans-65"/>
       <use x="1325.183594" xlink:href="#DejaVuSans-64"/>
       <use x="1388.660156" xlink:href="#DejaVuSans-20"/>
       <use x="1420.447266" xlink:href="#DejaVuSans-62"/>
       <use x="1483.923828" xlink:href="#DejaVuSans-79"/>
       <use x="1543.103516" xlink:href="#DejaVuSans-20"/>
       <use x="1574.890625" xlink:href="#DejaVuSans-66"/>
       <use x="1610.095703" xlink:href="#DejaVuSans-69"/>
       <use x="1637.878906" xlink:href="#DejaVuSans-6e"/>
       <use x="1701.257812" xlink:href="#DejaVuSans-61"/>
       <use x="1762.537109" xlink:href="#DejaVuSans-6e"/>
       <use x="1825.916016" xlink:href="#DejaVuSans-63"/>
       <use x="1880.896484" xlink:href="#DejaVuSans-69"/>
       <use x="1908.679688" xlink:href="#DejaVuSans-61"/>
       <use x="1969.958984" xlink:href="#DejaVuSans-6c"/>
       <use x="1997.742188" xlink:href="#DejaVuSans-20"/>
       <use x="2029.529297" xlink:href="#DejaVuSans-69"/>
       <use x="2057.3125" xlink:href="#DejaVuSans-6e"/>
       <use x="2120.691406" xlink:href="#DejaVuSans-73"/>
       <use x="2172.791016" xlink:href="#DejaVuSans-74"/>
       <use x="2212" xlink:href="#DejaVuSans-69"/>
       <use x="2239.783203" xlink:href="#DejaVuSans-74"/>
       <use x="2278.992188" xlink:href="#DejaVuSans-75"/>
       <use x="2342.371094" xlink:href="#DejaVuSans-74"/>
       <use x="2381.580078" xlink:href="#DejaVuSans-69"/>
       <use x="2409.363281" xlink:href="#DejaVuSans-6f"/>
       <use x="2470.544922" xlink:href="#DejaVuSans-6e"/>
      </g>
     </g>
    </g>
    <g id="text_17">
     <!-- Class -->
     <defs>
      <path d="M 64.40625 67.28125 
L 64.40625 56.890625 
Q 59.421875 61.53125 53.78125 63.8125 
Q 48.140625 66.109375 41.796875 66.109375 
Q 29.296875 66.109375 22.65625 58.46875 
Q 16.015625 50.828125 16.015625 36.375 
Q 16.015625 21.96875 22.65625 14.328125 
Q 29.296875 6.6875 41.796875 6.6875 
Q 48.140625 6.6875 53.78125 8.984375 
Q 59.421875 11.28125 64.40625 15.921875 
L 64.40625 5.609375 
Q 59.234375 2.09375 53.4375 0.328125 
Q 47.65625 -1.421875 41.21875 -1.421875 
Q 24.65625 -1.421875 15.125 8.703125 
Q 5.609375 18.84375 5.609375 36.375 
Q 5.609375 53.953125 15.125 64.078125 
Q 24.65625 74.21875 41.21875 74.21875 
Q 47.75 74.21875 53.53125 72.484375 
Q 59.328125 70.75 64.40625 67.28125 
z
" id="DejaVuSans-43"/>
     </defs>
     <g transform="translate(14.798437 132.573906)rotate(-90)scale(0.1 -0.1)">
      <use xlink:href="#DejaVuSans-43"/>
      <use x="69.824219" xlink:href="#DejaVuSans-6c"/>
      <use x="97.607422" xlink:href="#DejaVuSans-61"/>
      <use x="158.886719" xlink:href="#DejaVuSans-73"/>
      <use x="210.986328" xlink:href="#DejaVuSans-73"/>
     </g>
    </g>
   </g>
   <g id="patch_10">
    <path d="M 281.270312 228.14 
L 281.270312 10.7 
" style="fill:none;stroke:#000000;stroke-linecap:square;stroke-linejoin:miter;stroke-width:0.8;"/>
   </g>
   <g id="patch_11">
    <path d="M 616.070312 228.14 
L 616.070312 10.7 
" style="fill:none;stroke:#000000;stroke-linecap:square;stroke-linejoin:miter;stroke-width:0.8;"/>
   </g>
   <g id="patch_12">
    <path d="M 281.270312 228.14 
L 616.070312 228.14 
" style="fill:none;stroke:#000000;stroke-linecap:square;stroke-linejoin:miter;stroke-width:0.8;"/>
   </g>
   <g id="patch_13">
    <path d="M 281.270312 10.7 
L 616.070312 10.7 
" style="fill:none;stroke:#000000;stroke-linecap:square;stroke-linejoin:miter;stroke-width:0.8;"/>
   </g>
   <g id="legend_1">
    <g id="patch_14">
     <path d="M 548.857812 33.378125 
L 609.070312 33.378125 
Q 611.070312 33.378125 611.070312 31.378125 
L 611.070312 17.7 
Q 611.070312 15.7 609.070312 15.7 
L 548.857812 15.7 
Q 546.857812 15.7 546.857812 17.7 
L 546.857812 31.378125 
Q 546.857812 33.378125 548.857812 33.378125 
z
" style="fill:#ffffff;opacity:0.8;stroke:#cccccc;stroke-linejoin:miter;"/>
    </g>
    <g id="patch_15">
     <path d="M 550.857812 27.298437 
L 570.857812 27.298437 
L 570.857812 20.298437 
L 550.857812 20.298437 
z
" style="fill:#008000;"/>
    </g>
    <g id="text_18">
     <!-- count -->
     <g transform="translate(578.857812 27.298437)scale(0.1 -0.1)">
      <use xlink:href="#DejaVuSans-63"/>
      <use x="54.980469" xlink:href="#DejaVuSans-6f"/>
      <use x="116.162109" xlink:href="#DejaVuSans-75"/>
      <use x="179.541016" xlink:href="#DejaVuSans-6e"/>
      <use x="242.919922" xlink:href="#DejaVuSans-74"/>
     </g>
    </g>
   </g>
  </g>
 </g>
 <defs>
  <clipPath id="p14dc39ba9f">
   <rect height="217.44" width="334.8" x="281.270312" y="10.7"/>
  </clipPath>
 </defs>
</svg>
